PathFileType	4	(X/Y/Z)	s06c0301.trc
DataRate	CameraRate	NumFrames	NumMarkers	Units	OrigDataRate	OrigDataStartFrame	OrigNumFrames
200	200	4	48	mm	200	1500	2000
Frame#	Time	racr			lacr			c7			jug			rlel			rdr			llel			ldr			s2			lic			ric			lasi			rasi			rpsi			lpsi			rgt			lgt			rth1			rth2			rth3			rth4			rlfc			rmfc			rsh1			rsh2			rsh3			rsh4			rlmal			rcal			rtoe			rmt5			lth1			lth2			lth4			lth3			llfc			lmfc			llmal			lcal			lmt5			lsh1			lsh2			lsh3			lsh4			ltoe			SBIKE			LBIKE			RBIKE			
		X1	Y1	Z1	X2	Y2	Z2	X3	Y3	Z3	X4	Y4	Z4	X5	Y5	Z5	X6	Y6	Z6	X7	Y7	Z7	X8	Y8	Z8	X9	Y9	Z9	X10	Y10	Z10	X11	Y11	Z11	X12	Y12	Z12	X13	Y13	Z13	X14	Y14	Z14	X15	Y15	Z15	X16	Y16	Z16	X17	Y17	Z17	X18	Y18	Z18	X19	Y19	Z19	X20	Y20	Z20	X21	Y21	Z21	X22	Y22	Z22	X23	Y23	Z23	X24	Y24	Z24	X25	Y25	Z25	X26	Y26	Z26	X27	Y27	Z27	X28	Y28	Z28	X29	Y29	Z29	X30	Y30	Z30	X31	Y31	Z31	X32	Y32	Z32	X33	Y33	Z33	X34	Y34	Z34	X35	Y35	Z35	X36	Y36	Z36	X37	Y37	Z37	X38	Y38	Z38	X39	Y39	Z39	X40	Y40	Z40	X41	Y41	Z41	X42	Y42	Z42	X43	Y43	Z43	X44	Y44	Z44	X45	Y45	Z45	X46	Y46	Z46	X47	Y47	Z47	X48	Y48	Z48	
1500	7.5000	563.939610	1318.108857	-93.757217	581.187695	1300.832934	-407.751106	563.927911	1392.358952	-255.761400	554.163335	1217.212946	-237.750228	545.659005	1081.311038	38.794729	710.631510	928.055428	-55.882415	534.588556	1052.541475	-509.895522	706.506820	922.989058	-412.812191	11.655465	1196.737356	-249.718752	195.528738	1112.629056	-410.715177	150.732701	1179.778867	-80.065639	196.670410	1051.147037	-374.135639	169.710296	1120.531173	-97.023721	51.190786	1233.754209	-234.500059	50.330488	1217.453836	-293.449088	125.669033	1142.617953	-44.595457	134.062403	1043.118302	-432.542014	226.448079	1080.628597	-37.637598	313.925692	1054.995509	-38.636032	374.560786	993.589798	-31.082077	328.395167	1080.233272	-63.270806	439.492638	908.917825	-51.106517	433.423642	880.598611	-166.009008	384.162574	796.123796	-27.484245	354.633874	715.737583	-47.467450	291.926594	655.912009	-47.618516	375.178040	706.597190	-80.782697	236.181447	584.992365	-51.944377	166.777183	572.591863	-100.595305	419.331675	460.726342	-106.154870	323.675516	476.417876	-33.802849	146.193924	917.600256	-453.238355	195.422270	845.453509	-448.659183	229.809392	857.814482	-441.708612	201.223542	756.998148	-438.637558	219.828088	647.646164	-413.381591	231.118683	633.948740	-297.697304	103.941718	305.585997	-376.003837	45.716604	328.655019	-325.002315	154.749307	165.577519	-403.255389	184.065774	546.159550	-426.151310	181.365614	461.910313	-405.749717	134.887567	387.003224	-392.934679	211.549904	458.447423	-380.803089	222.145232	108.829178	-346.467866	-203.295178	867.510864	-215.120548	-49.659494	80.017426	-414.556016	-48.814024	80.143523	-17.159358	
1501	7.5050	562.189708	1319.102311	-94.316355	579.858381	1301.395496	-407.589064	562.214470	1393.671834	-256.155608	552.616706	1218.412791	-238.060389	544.985680	1082.116793	37.928303	710.507508	928.516377	-56.079178	534.568075	1052.966021	-509.453178	706.584891	922.969065	-412.659643	10.222346	1198.422802	-249.692691	193.265563	1113.781186	-410.676215	149.277999	1181.146826	-80.205708	194.462237	1052.443901	-374.292635	168.261500	1121.923423	-97.319827	49.603684	1235.341437	-234.253323	48.667789	1219.018795	-293.435394	123.762593	1143.692251	-44.899439	132.409498	1045.070485	-433.473970	223.928045	1079.996309	-37.430209	311.170316	1053.639976	-38.546421	371.246246	991.564103	-31.285830	325.842975	1078.718905	-63.099249	435.998324	906.024094	-51.027893	429.850776	877.674820	-165.585574	382.799542	791.801035	-26.957298	355.406020	710.585373	-46.962615	294.365403	649.159957	-47.166543	376.332441	702.103986	-80.133024	240.745526	576.821861	-51.497953	171.632013	562.647354	-100.102679	427.036497	457.437150	-106.170558	331.030866	470.412006	-33.585109	146.343574	919.808123	-453.366071	197.018703	848.703543	-448.739813	231.136019	861.670535	-441.219584	204.500119	760.288711	-439.179722	222.918510	650.865827	-413.130013	233.933737	637.016466	-297.609566	98.573635	311.820978	-375.959300	40.542770	335.881513	-324.973046	146.732824	171.000030	-403.140411	185.239709	550.122736	-426.314151	180.270393	466.162142	-405.429199	131.966965	392.343029	-392.995422	210.072396	462.042465	-380.229443	213.111351	113.027598	-346.370177	-203.286654	867.532559	-215.039886	-49.652227	80.056418	-414.577203	-48.806997	80.135337	-17.140584	
1502	7.5100	560.425405	1320.062708	-94.801250	578.597465	1301.868523	-407.588655	560.449218	1394.910961	-256.612088	551.176357	1219.538953	-238.342059	544.351915	1083.048249	37.142656	710.307099	929.081016	-56.270761	534.587264	1053.362370	-509.010826	706.676705	922.962400	-412.564863	8.733273	1199.998337	-249.683224	190.965901	1114.974867	-410.956385	147.888847	1182.113717	-80.148443	192.333826	1053.732998	-374.457130	166.419449	1122.717591	-97.237952	48.092928	1236.719949	-233.932260	47.051589	1220.507216	-293.445620	121.863882	1144.647670	-44.662120	130.771372	1046.862964	-433.905782	221.231587	1078.428936	-37.609135	308.485929	1051.534854	-38.368496	367.444076	988.850085	-30.593164	323.304184	1076.252280	-63.262288	432.258578	902.365392	-50.687171	426.095815	874.099999	-165.093169	381.214344	786.851340	-26.434481	356.051991	704.820558	-46.337398	296.672020	641.885351	-46.705700	377.326664	696.912532	-79.544166	245.182519	568.005282	-51.065156	176.392478	552.397844	-99.616859	434.321488	453.633098	-106.276071	338.142293	464.056628	-33.408249	146.901627	922.256755	-453.417765	198.938491	852.176327	-448.589339	232.700663	865.741487	-440.533143	208.074401	763.869954	-439.508939	226.215954	654.205609	-412.722330	237.248970	640.231016	-297.410564	93.466364	318.258283	-375.951537	35.553126	343.335385	-325.007598	139.077195	176.857242	-403.045648	186.825948	554.213365	-426.632773	179.435443	470.617422	-405.040543	129.279126	397.945433	-392.987689	208.794534	465.873136	-379.541666	204.582358	117.833181	-346.223810	-203.288518	867.529889	-214.990431	-49.659056	80.040211	-414.543675	-48.799879	80.137154	-17.153925	
1503	7.5150	558.709205	1321.033414	-95.484453	577.212782	1302.371975	-407.441436	558.605091	1396.105400	-257.093695	549.757699	1220.612921	-238.666448	543.698531	1083.812849	36.118557	709.797082	930.071563	-56.180154	534.569483	1053.751597	-508.620526	706.747843	922.942892	-412.454705	7.153612	1201.537588	-249.544868	188.791642	1116.123535	-411.221558	146.491756	1182.911696	-80.147903	190.245479	1055.005074	-374.434984	165.214409	1123.640454	-97.536674	46.628509	1238.040436	-233.807220	45.382503	1221.905041	-293.421826	119.979290	1144.859470	-44.865130	129.259262	1048.626758	-434.301583	218.667467	1076.755766	-37.100735	305.412280	1048.902406	-37.733066	363.545484	985.414343	-30.336429	320.745419	1073.625440	-62.675509	428.458471	897.813237	-51.103927	422.380632	869.737742	-164.434831	379.476346	781.222501	-25.738383	356.573566	698.602810	-45.687280	298.856522	634.101086	-46.192436	378.078798	691.242864	-78.817646	249.473132	558.974135	-50.605348	180.753461	542.143211	-99.250479	441.105356	449.107580	-106.291535	344.773209	457.108867	-33.232040	147.719996	925.050296	-453.283552	201.109466	855.972325	-448.291764	234.505489	870.162642	-439.722449	211.778084	767.747280	-439.634272	229.872652	657.699844	-412.083489	240.619132	643.602062	-297.265392	88.397631	325.033940	-375.952349	30.588341	351.002684	-325.070315	131.882028	183.143399	-403.052188	188.483151	558.553412	-426.780709	178.727471	475.204666	-404.582384	126.676124	403.762881	-393.005262	207.578157	469.873519	-378.652597	196.508773	123.244358	-346.186491	-203.305982	867.520756	-215.000241	-49.645305	80.056593	-414.569825	-48.798565	80.135702	-17.129416	
